<svg width="245" height="245" viewBox="0 0 245 245" fill="none" xmlns="http://www.w3.org/2000/svg">
<rect width="245" height="245" fill="white"/>
<path fill-rule="evenodd" clip-rule="evenodd" d="M121.41 19.0075C123.288 18.8632 124.622 20.8353 124.861 21.2009H124.87L124.873 21.2053C125.138 21.602 126.572 23.7487 125.49 25.8954C124.699 27.4538 122.821 28.512 121.038 28.0791C118.884 27.5597 117.998 25.1643 118.055 23.4423C118.122 21.4606 119.485 19.1615 121.41 19.0075ZM34.4004 126.033L34.4015 126.033C40.7222 127.399 51.0456 129.629 71.5394 132.071C72.3766 132.17 73.221 132.242 74.0637 132.313L74.0641 132.313L74.0655 132.313C74.6038 132.358 75.1414 132.403 75.6762 132.456C72.607 135.245 69.3281 137.054 65.9824 138.728C63.0437 140.2 60.0934 141.648 57.1431 143.095L57.143 143.095L57.1428 143.095L57.1426 143.095L57.1425 143.096L57.1423 143.096L57.1421 143.096L57.1419 143.096L57.1418 143.096L57.1416 143.096L57.1414 143.096L57.1413 143.096L57.1411 143.096L57.1409 143.096L57.1407 143.096L57.1406 143.097L57.1402 143.097L57.1397 143.097C50.8567 146.18 44.5744 149.262 38.4069 152.581C38.2448 152.667 38.0923 152.763 37.9398 152.869C35.0803 154.957 36.5768 159.642 40.0845 159.892C40.5515 159.93 41.0186 159.911 41.4571 159.834C44.8268 159.249 48.1115 158.163 51.3909 157.079L51.3911 157.079L51.3913 157.079L51.3915 157.079L51.3917 157.079L51.3918 157.079L51.3932 157.079C52.6398 156.667 53.8857 156.255 55.1352 155.871C59.8734 154.416 64.6117 152.957 69.3485 151.497L69.3881 151.485C73.662 150.168 77.9348 148.852 82.2055 147.54C81.8529 150.108 80.7853 151.551 79.6129 152.898C77.4535 155.379 75.2846 157.853 73.1156 160.328L73.1131 160.33C68.0926 166.057 63.0714 171.785 58.1663 177.602C57.8041 178.025 57.5086 178.506 57.2513 179.016C56.9821 179.549 56.6723 180.061 56.373 180.556C55.3051 182.321 54.3715 183.864 55.8977 185.336L56.5554 186.558C56.6905 186.685 56.8153 186.875 56.9409 187.065C57.1965 187.454 57.4558 187.848 57.8136 187.732C59.272 187.26 63.0466 185.875 64.1904 184.99C66.3824 183.303 68.4747 181.483 70.5682 179.662L70.5686 179.661C72.08 178.346 73.592 177.031 75.1425 175.765C80.491 171.382 85.8718 167.047 91.2526 162.712L91.2527 162.712L91.2528 162.712L91.2529 162.712L91.2529 162.712L91.253 162.712L91.2531 162.712L91.2532 162.712L91.2533 162.712L91.2534 162.712L91.2535 162.711L91.2536 162.711L91.2537 162.711L91.2538 162.711L91.2545 162.711L91.2559 162.709C93.0181 161.29 94.7803 159.87 96.5414 158.449C96.875 161.277 96.3984 163.288 95.7502 165.25C94.4616 169.121 93.1226 172.977 91.7838 176.832L91.7837 176.832C88.8442 185.296 85.9053 193.758 83.5019 202.383C82.9109 204.499 84.7887 206.106 86.1898 206.818C87.2193 207.337 89.85 207.318 91.1273 205.952C94.5753 202.289 96.5335 197.547 98.4935 192.801C99.5081 190.345 100.523 187.887 101.746 185.577C103.659 181.971 105.649 178.408 107.639 174.844L107.642 174.84L107.643 174.839L107.643 174.837L107.644 174.836L107.644 174.835L107.645 174.834L107.646 174.833L107.646 174.832L107.647 174.831L107.648 174.829L107.648 174.828L107.649 174.827L107.65 174.826L107.65 174.825L107.651 174.824C108.641 173.052 109.63 171.279 110.61 169.502L110.785 169.541L110.946 169.578C111.114 169.616 111.226 169.64 111.339 169.665L111.339 169.665C111.513 169.704 111.687 169.742 112.069 169.829C112.946 182.912 113.822 195.995 114.709 209.3C114.833 211.262 116.091 214.177 117.368 214.812H119.971C122.782 214.812 123.574 210.627 123.85 207.799C125.213 194.187 126.548 180.825 127.882 167.472C130.961 170.502 132.781 173.764 134.449 177.102C136.172 180.553 137.878 184.015 139.584 187.477C143.38 195.179 147.176 202.884 151.168 210.483C151.311 210.762 151.521 211.012 151.778 211.233C154.094 213.263 157.907 211.714 158.107 208.626C158.126 208.318 158.107 208.03 158.031 207.741C156.772 202.661 155.251 197.644 153.728 192.625C153.025 190.307 152.322 187.989 151.645 185.664C150.174 180.635 148.735 175.592 147.297 170.551L147.296 170.548L147.295 170.546L147.294 170.543L147.294 170.541L147.293 170.538L147.292 170.536L147.292 170.533L147.291 170.53L147.29 170.528L147.289 170.525L147.289 170.523L147.288 170.52L147.287 170.518L147.286 170.513L147.285 170.509L147.276 170.478L147.261 170.425C146.623 168.189 145.985 165.954 145.344 163.72L145.704 163.489L145.706 163.487C146.018 163.286 146.109 163.228 146.621 162.903C157.087 172.157 167.553 181.411 178.381 190.983C179.258 191.753 180.564 191.734 181.413 190.945L181.451 190.906C184.015 188.482 184.282 184.471 182.061 181.729C173.635 171.311 165.618 161.412 157.602 151.522C160.5 151.109 162.492 151.609 164.436 152.273C168.263 153.564 172.086 154.874 175.908 156.183C183.785 158.881 191.664 161.579 199.59 164.124C202.735 165.135 204.727 164.442 206.281 161.922C207.768 159.517 205.862 157.775 203.117 156.236C194.84 151.615 186.506 147.11 178.171 142.604L178.17 142.604L178.169 142.603L178.167 142.603L178.166 142.602L178.165 142.601L178.164 142.601L178.163 142.6L178.161 142.599L178.16 142.599L178.159 142.598L178.158 142.597L178.157 142.597L178.155 142.596L178.154 142.596L178.153 142.595C173.756 140.218 169.359 137.841 164.97 135.447C164.213 135.034 163.534 134.484 162.547 133.683C161.994 133.234 161.344 132.706 160.528 132.08C166.339 131.672 171.99 131.275 177.545 130.884L177.607 130.879L177.62 130.878C188.15 130.138 198.336 129.421 208.616 128.704C210.294 128.588 214.478 127.578 214.478 125.866V123.038C214.478 119.924 209.709 119.448 206.44 119.122C206.244 119.103 206.054 119.084 205.871 119.065C193.251 117.766 180.879 116.486 168.507 115.197C170.06 112.946 171.633 111.946 173.301 111.119C176.795 109.371 180.297 107.641 183.799 105.912L183.802 105.91L183.802 105.91C191.402 102.157 199.001 98.4041 206.51 94.4665C209.56 92.8696 210.58 89.7239 209.236 87.9634C207.596 85.8182 206.434 85.4238 202.935 86.2318C199.795 86.9528 196.728 87.9982 193.66 89.0434L193.66 89.0435C191.857 89.6578 190.054 90.2721 188.237 90.8205C181.254 92.9397 174.256 95.0093 167.258 97.0791C164.503 97.8939 161.748 98.7087 158.994 99.5266L158.879 99.3475L158.764 99.1677L158.612 98.9299C158.522 98.7881 158.431 98.6462 158.231 98.3337C168.001 87.0207 177.781 75.698 187.513 64.4331C188.695 63.067 189.991 59.5461 188.981 58.055C187.522 55.9002 183.338 56.8429 181.27 58.4014L180.743 58.7969L180.743 58.7973C177.344 61.3486 173.949 63.8964 170.632 66.5398C165.653 70.5157 160.726 74.5579 155.798 78.6004C153.453 80.5244 151.108 82.4485 148.757 84.3656C150.612 74.6259 153.518 65.7441 156.418 56.8806L156.792 55.7366C157.111 54.7599 157.433 53.7837 157.755 52.8073L157.755 52.8072C159.411 47.7832 161.067 42.7562 162.416 37.6415C162.473 37.4106 162.492 37.1605 162.473 36.9008C162.282 34.4573 159.556 33.0913 157.354 34.1399C156.801 34.3996 156.277 34.7074 155.82 35.0922C154.828 35.9099 154.185 37.1949 153.556 38.4508C153.393 38.7759 153.232 39.099 153.065 39.4116C149.878 45.4037 146.7 51.4006 143.522 57.3974L143.519 57.4029L143.515 57.4099L143.51 57.4185L143.504 57.4301L143.503 57.4332L143.501 57.4363L143.499 57.4394C140.317 63.4438 137.135 69.4483 133.944 75.4479C133.335 76.5975 132.665 77.7193 131.997 78.8391L131.997 78.8392L131.997 78.8392L131.997 78.8393L131.997 78.8394L131.997 78.8394L131.997 78.8395L131.997 78.8396L131.997 78.8396L131.997 78.8397L131.997 78.8398L131.997 78.8398L131.997 78.8399L131.997 78.84L131.997 78.84L131.997 78.8401L131.996 78.8414C131.703 79.3324 131.41 79.8231 131.123 80.3156C130.901 80.2623 130.745 80.2245 130.618 80.1938C130.288 80.1138 130.157 80.0822 129.579 79.95C129.34 76.114 129.098 72.2788 128.855 68.4438L128.855 68.437L128.854 68.4303L128.854 68.4234L128.854 68.4166L128.853 68.4098L128.853 68.403L128.852 68.3962L128.852 68.3894C128.214 58.307 127.577 48.2269 127.005 38.1418C126.984 37.772 126.97 37.3717 126.956 36.9518C126.838 33.5152 126.674 28.7667 122.249 28.7239C117.667 28.6794 117.296 33.9127 117.055 37.3106L117.055 37.3109L117.055 37.3114L117.055 37.3119L117.055 37.3128L117.055 37.3142C117.035 37.5907 117.017 37.855 116.997 38.1033C116.844 40.0276 116.703 41.9528 116.561 43.8778L116.561 43.8793L116.561 43.8808L116.561 43.8823L116.561 43.8838L116.561 43.8852L116.561 43.8867L116.561 43.8882L116.56 43.8897L116.56 43.8912L116.56 43.8928L116.56 43.8943L116.56 43.8959L116.56 43.8974L116.56 43.899L116.56 43.9006C116.252 48.0981 115.943 52.2945 115.519 56.4774C115.028 61.4032 114.43 66.3196 113.832 71.2365L113.832 71.2366L113.832 71.2367L113.832 71.2368L113.832 71.237L113.832 71.2371L113.832 71.2372L113.832 71.2373L113.832 71.2374L113.832 71.2375L113.832 71.2376L113.832 71.2378L113.832 71.2379L113.832 71.238L113.832 71.2381L113.832 71.2382C113.572 73.3786 113.311 75.5191 113.06 77.6605C107.608 69.6182 103.528 61.4316 99.4676 53.2354C96.4842 47.2326 93.7486 41.9994 90.4791 36.1697C90.3362 35.9292 89.3544 34.8325 89.078 34.7555C87.234 34.1988 86.2708 35.299 85.452 36.2341C85.2381 36.4784 85.0341 36.7115 84.8268 36.9008C84.3502 37.3337 84.1119 38.844 84.1024 39.4789C84.1 39.7288 84.0972 39.9357 84.0948 40.1089L84.0948 40.1109C84.0865 40.7226 84.0839 40.9139 84.1266 41.0943C84.1461 41.1764 84.1749 41.2562 84.2168 41.3724C84.2664 41.5096 84.3342 41.6974 84.4264 41.9994C85.2674 44.7414 86.1254 47.4778 86.9834 50.2145L86.9838 50.2156L86.9841 50.2167L86.9844 50.2177L86.9848 50.2188L86.9853 50.2205L86.9858 50.2221L86.9863 50.2237L86.9868 50.2253L86.9873 50.2269L86.9878 50.2285L86.9883 50.2302L86.9888 50.2318L86.9891 50.2327C88.3658 54.6236 89.7427 59.0153 91.051 63.4326C92.5605 68.5545 93.9946 73.6989 95.4289 78.8443C96.0958 81.2368 96.7627 83.6295 97.4374 86.0202C97.172 86.1895 97.0249 86.2847 96.8985 86.3664C96.7162 86.4844 96.5772 86.5743 96.1887 86.8186L95.9391 86.5989C85.89 77.7546 75.8429 68.9119 66.0301 60.2869C63.4469 58.0069 58.7192 54.2455 56.4506 54.8805C56.422 54.8805 54.2583 56.8429 54.2392 56.8622C53.3623 58.1031 52.981 59.2094 53.7722 60.662C58.6928 69.567 66.8103 78.65 74.3997 87.1422L74.3998 87.1423C77.9688 91.1359 81.4211 94.9989 84.3693 98.6512C81.6813 99.0456 79.6987 98.555 77.7732 97.9104C73.3035 96.4154 69.3781 95.0744 65.6251 93.7923L65.6248 93.7922L65.6238 93.7918C58.3165 91.2954 51.6622 89.0222 42.9154 86.2703C42.7534 86.2222 40.0178 85.7893 39.8462 85.7701C36.4243 85.2314 34.4035 89.5411 36.6626 92.1962C36.9485 92.5329 38.1019 93.5526 38.4641 93.7642C42.2997 96.0043 45.5779 98.0658 48.7755 100.077L48.776 100.077L48.7763 100.077C53.2545 102.893 57.5747 105.61 63.0466 108.579C64.2302 109.223 65.9891 110.35 67.9348 111.596L67.9349 111.596L67.9354 111.596L67.94 111.599C68.7818 112.138 69.6585 112.7 70.5386 113.254L36.186 115.313C36.067 115.327 35.7067 115.419 35.4594 115.482L35.4589 115.482L35.4588 115.482L35.458 115.482L35.4574 115.483L35.4571 115.483C35.3685 115.505 35.2946 115.524 35.2519 115.534C31.0102 116.612 29.0943 119.142 29.0943 119.142C28.6558 119.43 28.2746 122.374 28.7607 123.442L32.1826 125.558C32.8656 125.702 33.6001 125.86 34.3984 126.033L34.4004 126.033ZM115.643 222.219C115.815 222.623 116.777 224.807 118.645 224.999C120.571 225.201 122.315 223.181 122.735 221.248C123.097 219.564 122.649 217.034 120.628 216.139C118.95 215.389 116.92 216.091 115.862 217.486C114.429 219.389 115.439 221.743 115.637 222.204L115.643 222.219ZM85.7801 28.5506L85.7686 28.5404C85.4161 28.2262 83.6725 26.672 81.9102 27.2712C80.0801 27.8965 79.308 30.4554 79.7178 32.3986C80.0801 34.0821 81.5194 36.1985 83.7307 36.1696C85.5608 36.1408 87.1241 34.6689 87.5149 32.947C88.0486 30.5901 86.1232 28.8585 85.7801 28.5506ZM49.2253 48.4158C50.8553 47.473 52.8951 48.6851 53.2668 48.9064V48.8968L53.2893 48.9106C53.7358 49.1845 55.8775 50.4981 55.8213 52.8698C55.7737 54.6302 54.5345 56.3907 52.7426 56.7755C50.5693 57.2469 48.7583 55.4576 48.072 53.8799C47.2904 52.0617 47.5477 49.3874 49.2253 48.4158ZM33.8036 82.0278C33.4414 81.7969 31.4397 80.5271 29.7811 81.4218C28.075 82.3357 27.7413 85.0004 28.4753 86.8474C29.1044 88.4443 30.8773 90.2913 33.0506 89.8873C34.8616 89.5506 36.1484 87.8286 36.2532 86.0778C36.3861 83.6741 34.2236 82.2904 33.8185 82.0313L33.8131 82.0278H33.8036ZM222.68 128.205L222.666 128.213V128.203L222.656 128.209C222.231 128.465 220.048 129.782 217.986 128.588C216.48 127.713 215.536 125.779 216.051 123.999C216.671 121.854 219.101 121.085 220.798 121.239C222.752 121.412 224.963 122.903 225.011 124.856C225.058 126.729 223.085 127.953 222.68 128.205ZM216.033 89.06L216.048 89.0507C216.455 88.7977 218.424 87.5736 218.377 85.7026C218.33 83.7498 216.118 82.2587 214.164 82.0855C212.468 81.9316 210.037 82.7012 209.418 84.8464C208.903 86.6261 209.846 88.5597 211.352 89.4352C213.409 90.6257 215.588 89.3176 216.02 89.058L216.033 89.0504V89.06ZM197.445 52.129C198.351 53.7932 197.102 55.8327 196.873 56.1982V56.1886L196.864 56.2034C196.594 56.6353 195.244 58.7942 192.88 58.6802C191.135 58.5936 189.42 57.3045 189.076 55.4863C188.667 53.2834 190.478 51.4844 192.06 50.8399C193.89 50.0992 196.521 50.4166 197.445 52.129ZM166.858 29.5896V29.5894C166.877 29.1558 166.982 26.7708 165.4 25.7513C163.77 24.7123 161.31 25.7224 160.081 27.2712C159.013 28.618 158.289 31.0711 159.709 32.7931C160.882 34.2168 163.007 34.5054 164.57 33.7262C166.715 32.6488 166.839 30.0514 166.858 29.5896ZM157.031 219.218L157.03 219.218H157.021L157.009 219.208C156.615 218.894 154.623 217.306 154.991 214.946C155.258 213.205 156.716 211.628 158.546 211.474C160.748 211.3 162.33 213.301 162.807 214.956C163.35 216.861 162.759 219.477 160.977 220.228C159.243 220.949 157.376 219.489 157.031 219.218ZM188.638 196.245L188.656 196.239C189.111 196.079 191.293 195.315 191.641 193.475C192.003 191.561 190.163 189.627 188.295 189.03C186.665 188.521 184.139 188.742 183.071 190.704C182.185 192.33 182.7 194.427 183.986 195.611C185.759 197.236 188.2 196.399 188.638 196.245ZM215.336 165.789C214.355 167.405 211.981 167.338 211.552 167.318H211.562L211.543 167.317C211.037 167.297 208.507 167.194 207.435 165.067C206.634 163.509 206.891 161.364 208.283 160.151C209.96 158.699 212.41 159.382 213.754 160.44C215.298 161.662 216.347 164.124 215.336 165.789ZM21.4785 117.362L21.4735 117.365C21.0793 117.583 19.0193 118.727 19.0003 120.623C18.9717 122.576 21.1068 124.163 23.0608 124.404C24.748 124.625 27.2072 123.961 27.9221 121.845C28.513 120.084 27.6456 118.112 26.1682 117.169C24.1717 115.896 21.9427 117.101 21.4941 117.344L21.4785 117.352V117.362ZM82.5108 215.88C80.6712 215.485 79.9468 213.205 79.8229 212.792H79.8324L79.8322 212.791C79.6885 212.336 78.9087 209.866 80.5568 208.107C81.7483 206.827 83.8453 206.356 85.4276 207.279C87.353 208.395 87.5246 210.954 86.9813 212.59C86.3617 214.475 84.3981 216.284 82.5108 215.88ZM47.8913 188.761L47.8887 188.769C47.7483 189.204 47.0224 191.454 48.2821 192.849C49.5784 194.292 52.2187 193.975 53.8105 192.821C55.2022 191.811 56.5461 189.636 55.6311 187.597C54.8781 185.913 52.905 185.057 51.1988 185.384C48.8444 185.837 48.0438 188.309 47.9008 188.751L47.8913 188.761ZM27.9508 161.315C27.2168 159.565 28.6466 157.67 28.9135 157.323L28.9138 157.323C29.1912 156.956 30.7636 154.88 33.1265 155.236C34.8518 155.486 36.4341 156.938 36.5961 158.785C36.7963 161.008 34.8232 162.624 33.1932 163.114C31.3059 163.682 28.7133 163.105 27.9508 161.315Z" fill="black"/>
</svg>
